# xmcd
#
# Track frame offsets:
# 150
# 19857
# 36267
# 56090
# 72260
# 84430
# 104142
# 119540
# 137425
# 155740
# 169472
# 185455
# 199607
# 216630
# 232325
# 249115
# 266782
# 287010
# 305492
#
# Disc length: 4273 seconds
#
# Revision: 1
# Processed by: cddbd v1.4PL0 Copyright (c) Steve Scherf et al.
# Submitted via: CedeCatalogueitor 2.5 http://usuarios.lycos.es/kakasboy
#
DISCID=2910af13
DTITLE=Commodores - The Best Of
DYEAR=1900
DGENRE=
TTITLE0=Easy
TTITLE1=Three Times A Lady
TTITLE2=Nightshift
TTITLE3=Brick House
TTITLE4=Machine Gun
TTITLE5=Zoom
TTITLE6=Old-Fashioned Love
TTITLE7=Sail On
TTITLE8=Lady (You Bring Me Up)
TTITLE9=Oh No
TTITLE10=Too Hot Ta Trot
TTITLE11=The Zoo (The Human Zoo)
TTITLE12=Still
TTITLE13=Sweet Love
TTITLE14=Janet
TTITLE15=Flying High
TTITLE16=Only You
TTITLE17=Animal Instinct
TTITLE18=Just To Be Close To You
EXTD=
EXTT0=
EXTT1=
EXTT2=
EXTT3=
EXTT4=
EXTT5=
EXTT6=
EXTT7=
EXTT8=
EXTT9=
EXTT10=
EXTT11=
EXTT12=
EXTT13=
EXTT14=
EXTT15=
EXTT16=
EXTT17=
EXTT18=
PLAYORDER=
